<?xml version="1.0" encoding="utf-8"?>
<!-- Generator: Adobe Illustrator 23.0.3, SVG Export Plug-In . SVG Version: 6.00 Build 0)  -->
<svg version="1.1" id="Layer_1" xmlns="http://www.w3.org/2000/svg" xmlns:xlink="http://www.w3.org/1999/xlink" x="0px" y="0px"
	 viewBox="0 0 80 80" style="enable-background:new 0 0 80 80;" xml:space="preserve">
<style type="text/css">
	.st0{fill:#8B8178;}
	.st1{fill:#FFFFFF;}
	.st2{fill:#E98300;}
	.st3{fill:#504842;}
	.st4{fill:#174734;}
</style>
<g>
	<g>
		<path class="st0" d="M7,10.6v60.6h63.1V10.6H7z M66.6,66.4H10.7V20.1h55.9V66.4z"/>
		<path class="st0" d="M20,10.5h-1.9v0.8v5v0.8H20h8.1H30v-0.8v-5.1v-0.7h-1.9C28.1,10.5,20,10.5,20,10.5z M28.1,15.4H20v-4.2h8.1
			V15.4z"/>
		<path class="st0" d="M57.2,10.5h-8.1h-1.9v0.8v5v0.8h1.9h8.1h1.9v-0.8v-5.1v-0.7C59.1,10.5,57.2,10.5,57.2,10.5z M57.2,15.4h-8.1
			v-4.2h8.1C57.2,11.2,57.2,15.4,57.2,15.4z"/>
		<rect x="20.1" y="4.3" class="st0" width="8" height="11.1"/>
		<rect x="49.2" y="4.3" class="st0" width="8" height="11.1"/>
		<rect x="16.8" y="26.4" class="st0" width="8.5" height="8.3"/>
		<rect x="34.6" y="26.4" class="st0" width="8.5" height="8.3"/>
		<rect x="52.3" y="26.5" class="st0" width="8.5" height="8.3"/>
		<rect x="16.8" y="39.1" class="st0" width="8.5" height="8.3"/>
		<rect x="34.6" y="39.1" class="st0" width="8.5" height="8.3"/>
		<rect x="65.6" y="51.7" class="st1" width="6.2" height="13.3"/>
		<rect x="16.9" y="51.7" class="st0" width="8.5" height="8.3"/>
		<rect x="34.7" y="51.7" class="st0" width="8.5" height="8.3"/>
	</g>
</g>
<g>
	<g>
		<g>
			<path class="st2" d="M77.7,64.7c-1.7-2.9-5-5.2-9-6.4c-2.4,3.6-5.1,4-6.6,4c-1.7,0-4.2-0.5-6.5-3.9c-3.9,1.2-7.2,3.6-8.8,6.5
				c-1.3,1.1-2.3,3.6-1.7,4.8c0.1,0.3,0.3,0.5,0.5,0.8c0,0.3,0.1,0.7,0.1,0.9c1.8,2.8,7,4.9,13.3,5.4h5.7c6.9-0.5,12.2-2.9,13.9-6
				c0-0.1,0-0.1,0-0.3s0.1-0.1,0.1-0.3C80.1,69,79.1,65.9,77.7,64.7z"/>
		</g>
	</g>
	<g>
		<path class="st2" d="M71.1,46.9c0,5.8-4.4,12.8-8.8,12.8s-8.8-6.9-8.8-12.8s4.4-9.7,8.8-9.7C66.6,37.2,71.1,41.1,71.1,46.9z"/>
		<g>
			<polygon class="st3" points="63,47.9 49.1,41.6 61.8,34.4 75.4,41 			"/>
			<polygon class="st4" points="53,54.4 50.5,54.4 51.9,41.9 52.4,41.9 			"/>
		</g>
	</g>
</g>
</svg>
